<svg width="1588" height="262" viewBox="0 0 1588 262" fill="none" xmlns="http://www.w3.org/2000/svg">
<g clip-path="url(#clip0_1465_585)">
<path d="M0 127.5C0 197.916 57.0837 255 127.5 255C197.916 255 255 197.916 255 127.5C255 57.0837 197.916 0 127.5 0C57.0837 0 0 57.0837 0 127.5Z" fill="white"/>
<path d="M402.805 210.466C390.921 210.466 380.188 208.435 370.605 204.371C361.098 200.231 353.24 194.366 347.03 186.776C340.896 179.11 336.91 170.025 335.07 159.521L360.14 155.726C362.67 165.846 367.96 173.743 376.01 179.416C384.06 185.013 393.451 187.811 404.185 187.811C410.855 187.811 416.988 186.776 422.585 184.706C428.181 182.56 432.666 179.531 436.04 175.621C439.49 171.635 441.215 166.881 441.215 161.361C441.215 158.371 440.678 155.726 439.605 153.426C438.608 151.126 437.19 149.133 435.35 147.446C433.586 145.683 431.401 144.188 428.795 142.961C426.265 141.658 423.466 140.546 420.4 139.626L377.965 127.091C373.825 125.865 369.608 124.293 365.315 122.376C361.021 120.383 357.073 117.815 353.47 114.671C349.943 111.451 347.068 107.503 344.845 102.826C342.621 98.0731 341.51 92.3231 341.51 85.5761C341.51 75.3801 344.116 66.7551 349.33 59.7011C354.62 52.5711 361.75 47.2051 370.72 43.6011C379.69 39.9211 389.733 38.0811 400.85 38.0811C412.043 38.2351 422.048 40.2281 430.865 44.0611C439.758 47.8951 447.118 53.4151 452.945 60.6211C458.848 67.7511 462.911 76.4151 465.135 86.6111L439.375 90.9811C438.225 84.7711 435.771 79.4431 432.015 74.9961C428.258 70.4731 423.658 67.0231 418.215 64.6461C412.771 62.1931 406.868 60.9281 400.505 60.8511C394.371 60.6981 388.736 61.6181 383.6 63.6111C378.54 65.6051 374.476 68.4031 371.41 72.0061C368.42 75.6101 366.925 79.7501 366.925 84.4261C366.925 89.0261 368.266 92.7451 370.95 95.5811C373.633 98.4181 376.93 100.68 380.84 102.366C384.826 103.976 388.775 105.318 392.685 106.391L423.275 115.016C427.108 116.09 431.44 117.546 436.27 119.386C441.176 121.15 445.891 123.641 450.415 126.861C455.015 130.081 458.81 134.375 461.8 139.741C464.79 145.031 466.285 151.701 466.285 159.751C466.285 168.108 464.598 175.468 461.225 181.831C457.851 188.118 453.213 193.408 447.31 197.701C441.483 201.918 434.736 205.1 427.07 207.246C419.403 209.393 411.315 210.466 402.805 210.466ZM549.097 210.466C537.214 210.466 527.247 207.591 519.197 201.841C511.147 196.015 505.052 188.156 500.912 178.266C496.772 168.376 494.702 157.221 494.702 144.801C494.702 132.381 496.734 121.226 500.797 111.336C504.937 101.446 510.994 93.6651 518.967 87.9911C527.017 82.2411 536.907 79.3661 548.637 79.3661C560.291 79.3661 570.334 82.2411 578.767 87.9911C587.277 93.6651 593.832 101.446 598.432 111.336C603.032 121.15 605.332 132.305 605.332 144.801C605.332 157.221 603.032 168.415 598.432 178.381C593.909 188.271 587.431 196.091 578.997 201.841C570.641 207.591 560.674 210.466 549.097 210.466ZM490.677 262.216V82.8161H512.067V172.171H514.827V262.216H490.677ZM545.762 188.731C553.429 188.731 559.754 186.776 564.737 182.866C569.797 178.956 573.554 173.705 576.007 167.111C578.537 160.441 579.802 153.005 579.802 144.801C579.802 136.675 578.537 129.315 576.007 122.721C573.554 116.128 569.759 110.876 564.622 106.966C559.486 103.056 552.931 101.101 544.957 101.101C537.444 101.101 531.234 102.941 526.327 106.621C521.497 110.301 517.894 115.438 515.517 122.031C513.217 128.625 512.067 136.215 512.067 144.801C512.067 153.388 513.217 160.978 515.517 167.571C517.817 174.165 521.459 179.34 526.442 183.096C531.426 186.853 537.866 188.731 545.762 188.731ZM717.894 207.016V145.951C717.894 141.121 717.472 136.176 716.629 131.116C715.862 125.98 714.329 121.226 712.029 116.856C709.806 112.486 706.624 108.96 702.484 106.276C698.421 103.593 693.092 102.251 686.499 102.251C682.206 102.251 678.142 102.98 674.309 104.436C670.476 105.816 667.102 108.078 664.189 111.221C661.352 114.365 659.091 118.505 657.404 123.641C655.794 128.778 654.989 135.026 654.989 142.386L640.039 136.751C640.039 125.481 642.147 115.553 646.364 106.966C650.581 98.3031 656.637 91.5561 664.534 86.7261C672.431 81.8961 681.976 79.4811 693.169 79.4811C701.756 79.4811 708.962 80.8611 714.789 83.6211C720.616 86.3811 725.331 90.0231 728.934 94.5461C732.614 98.9931 735.412 103.861 737.329 109.151C739.246 114.441 740.549 119.616 741.239 124.676C741.929 129.736 742.274 134.183 742.274 138.016V207.016H717.894ZM630.609 207.016V41.4161H652.114V130.771H654.989V207.016H630.609ZM827.313 210.466C814.97 210.466 804.121 207.783 794.768 202.416C785.491 196.973 778.246 189.421 773.033 179.761C767.896 170.025 765.328 158.755 765.328 145.951C765.328 132.381 767.858 120.613 772.918 110.646C778.055 100.68 785.185 92.9751 794.308 87.5311C803.431 82.0881 814.05 79.3661 826.163 79.3661C838.813 79.3661 849.585 82.3181 858.478 88.2211C867.371 94.0481 874.003 102.366 878.373 113.176C882.82 123.986 884.583 136.828 883.663 151.701H859.628V142.961C859.475 128.548 856.715 117.891 851.348 110.991C846.058 104.091 837.97 100.641 827.083 100.641C815.046 100.641 806 104.436 799.943 112.026C793.886 119.616 790.858 130.58 790.858 144.916C790.858 158.563 793.886 169.143 799.943 176.656C806 184.093 814.74 187.811 826.163 187.811C833.676 187.811 840.155 186.125 845.598 182.751C851.118 179.301 855.411 174.395 858.478 168.031L882.053 175.506C877.223 186.623 869.901 195.248 860.088 201.381C850.275 207.438 839.35 210.466 827.313 210.466ZM783.038 151.701V132.956H871.703V151.701H783.038ZM909.464 207.016V82.8161H930.85V112.946L927.86 109.036C929.4 105.05 931.39 101.408 933.84 98.1111C936.3 94.7381 939.13 91.9781 942.35 89.8311C945.5 87.5311 948.99 85.7681 952.82 84.5411C956.73 83.2381 960.72 82.4711 964.78 82.2411C968.84 81.9351 972.75 82.1261 976.51 82.8161V105.356C972.45 104.283 967.92 103.976 962.94 104.436C958.03 104.896 953.51 106.468 949.37 109.151C945.46 111.681 942.35 114.748 940.05 118.351C937.83 121.955 936.22 125.98 935.22 130.426C934.23 134.796 933.73 139.435 933.73 144.341V207.016H909.464ZM1051.25 210.466C1038.91 210.466 1028.06 207.783 1018.7 202.416C1009.43 196.973 1002.18 189.421 996.97 179.761C991.83 170.025 989.26 158.755 989.26 145.951C989.26 132.381 991.79 120.613 996.85 110.646C1001.99 100.68 1009.12 92.9751 1018.24 87.5311C1027.37 82.0881 1037.99 79.3661 1050.1 79.3661C1062.75 79.3661 1073.52 82.3181 1082.41 88.2211C1091.31 94.0481 1097.94 102.366 1102.31 113.176C1106.76 123.986 1108.52 136.828 1107.6 151.701H1083.56V142.961C1083.41 128.548 1080.65 117.891 1075.28 110.991C1069.99 104.091 1061.91 100.641 1051.02 100.641C1038.98 100.641 1029.94 104.436 1023.88 112.026C1017.82 119.616 1014.79 130.58 1014.79 144.916C1014.79 158.563 1017.82 169.143 1023.88 176.656C1029.94 184.093 1038.68 187.811 1050.1 187.811C1057.61 187.811 1064.09 186.125 1069.53 182.751C1075.05 179.301 1079.35 174.395 1082.41 168.031L1105.99 175.506C1101.16 186.623 1093.84 195.248 1084.02 201.381C1074.21 207.438 1063.29 210.466 1051.25 210.466ZM1006.97 151.701V132.956H1095.64V151.701H1006.97ZM1186.53 210.466C1173.8 210.466 1162.99 207.63 1154.1 201.956C1145.21 196.283 1138.38 188.501 1133.63 178.611C1128.95 168.721 1126.58 157.49 1126.5 144.916C1126.58 132.113 1129.03 120.805 1133.86 110.991C1138.69 101.101 1145.59 93.3581 1154.56 87.7611C1163.53 82.1651 1174.3 79.3661 1186.87 79.3661C1200.44 79.3661 1212.02 82.7401 1221.6 89.4861C1231.26 96.2331 1237.63 105.471 1240.69 117.201L1216.77 124.101C1214.4 117.125 1210.49 111.72 1205.04 107.886C1199.68 103.976 1193.51 102.021 1186.53 102.021C1178.63 102.021 1172.15 103.9 1167.09 107.656C1162.03 111.336 1158.28 116.396 1155.82 122.836C1153.37 129.276 1152.11 136.636 1152.03 144.916C1152.11 157.72 1155.02 168.07 1160.77 175.966C1166.6 183.863 1175.18 187.811 1186.53 187.811C1194.27 187.811 1200.52 186.048 1205.27 182.521C1210.1 178.918 1213.78 173.781 1216.31 167.111L1240.69 172.861C1236.63 184.975 1229.92 194.29 1220.57 200.806C1211.22 207.246 1199.87 210.466 1186.53 210.466ZM1297.63 210.466C1288.43 210.466 1280.72 208.78 1274.51 205.406C1268.3 201.956 1263.59 197.433 1260.37 191.836C1257.22 186.163 1255.65 179.953 1255.65 173.206C1255.65 166.92 1256.76 161.4 1258.99 156.646C1261.21 151.893 1264.51 147.868 1268.88 144.571C1273.25 141.198 1278.61 138.476 1284.98 136.406C1290.5 134.796 1296.74 133.378 1303.72 132.151C1310.7 130.925 1318.02 129.775 1325.69 128.701C1333.43 127.628 1341.1 126.555 1348.69 125.481L1339.95 130.311C1340.1 120.575 1338.03 113.368 1333.74 108.691C1329.52 103.938 1322.24 101.561 1311.89 101.561C1305.37 101.561 1299.39 103.095 1293.95 106.161C1288.5 109.151 1284.71 114.135 1282.56 121.111L1260.14 114.211C1263.2 103.555 1269.03 95.0831 1277.62 88.7961C1286.28 82.5101 1297.78 79.3661 1312.12 79.3661C1323.23 79.3661 1332.89 81.2831 1341.1 85.1161C1349.38 88.8731 1355.43 94.8531 1359.27 103.056C1361.26 107.12 1362.49 111.413 1362.95 115.936C1363.41 120.46 1363.64 125.328 1363.64 130.541V207.016H1342.36V178.611L1346.5 182.291C1341.36 191.798 1334.81 198.89 1326.84 203.566C1318.94 208.166 1309.2 210.466 1297.63 210.466ZM1301.88 190.801C1308.7 190.801 1314.57 189.613 1319.48 187.236C1324.38 184.783 1328.33 181.678 1331.32 177.921C1334.31 174.165 1336.27 170.255 1337.19 166.191C1338.49 162.511 1339.22 158.371 1339.37 153.771C1339.6 149.171 1339.72 145.491 1339.72 142.731L1347.54 145.606C1339.95 146.756 1333.05 147.791 1326.84 148.711C1320.63 149.631 1314.99 150.551 1309.93 151.471C1304.95 152.315 1300.5 153.35 1296.59 154.576C1293.29 155.726 1290.34 157.106 1287.74 158.716C1285.21 160.326 1283.17 162.281 1281.64 164.581C1280.18 166.881 1279.46 169.68 1279.46 172.976C1279.46 176.196 1280.26 179.186 1281.87 181.946C1283.48 184.63 1285.93 186.776 1289.23 188.386C1292.53 189.996 1296.74 190.801 1301.88 190.801ZM1440.99 210.351C1425.89 210.351 1413.58 207.016 1404.08 200.346C1394.57 193.676 1388.74 184.285 1386.6 172.171L1411.21 168.376C1412.74 174.816 1416.27 179.915 1421.79 183.671C1427.38 187.351 1434.32 189.191 1442.6 189.191C1450.12 189.191 1455.98 187.658 1460.2 184.591C1464.49 181.525 1466.64 177.308 1466.64 171.941C1466.64 168.798 1465.87 166.268 1464.34 164.351C1462.88 162.358 1459.78 160.48 1455.02 158.716C1450.27 156.953 1443.02 154.768 1433.29 152.161C1422.63 149.401 1414.16 146.45 1407.87 143.306C1401.66 140.086 1397.22 136.368 1394.53 132.151C1391.93 127.858 1390.62 122.683 1390.62 116.626C1390.62 109.113 1392.62 102.558 1396.6 96.9611C1400.59 91.3651 1406.19 87.0331 1413.39 83.9661C1420.68 80.9001 1429.19 79.3661 1438.92 79.3661C1448.43 79.3661 1456.9 80.8611 1464.34 83.8511C1471.77 86.8411 1477.79 91.0961 1482.39 96.6161C1486.99 102.06 1489.75 108.461 1490.67 115.821L1466.06 120.306C1465.22 114.326 1462.42 109.611 1457.67 106.161C1452.91 102.711 1446.74 100.833 1439.15 100.526C1431.87 100.22 1425.97 101.446 1421.44 104.206C1416.92 106.89 1414.66 110.608 1414.66 115.361C1414.66 118.121 1415.5 120.46 1417.19 122.376C1418.95 124.293 1422.32 126.133 1427.31 127.896C1432.29 129.66 1439.65 131.768 1449.39 134.221C1459.81 136.905 1468.09 139.895 1474.23 143.191C1480.36 146.411 1484.73 150.283 1487.34 154.806C1490.02 159.253 1491.36 164.658 1491.36 171.021C1491.36 183.288 1486.88 192.91 1477.91 199.886C1469.01 206.863 1456.71 210.351 1440.99 210.351ZM1587.88 207.016C1580.06 208.55 1572.39 209.201 1564.88 208.971C1557.36 208.741 1550.66 207.285 1544.75 204.601C1538.85 201.918 1534.4 197.701 1531.41 191.951C1528.73 186.815 1527.27 181.601 1527.04 176.311C1526.89 170.945 1526.81 164.888 1526.81 158.141V48.3161H1550.96V156.991C1550.96 161.975 1551 166.306 1551.08 169.986C1551.23 173.666 1552.04 176.771 1553.49 179.301C1556.25 184.055 1560.62 186.776 1566.6 187.466C1572.66 188.08 1579.75 187.811 1587.88 186.661V207.016ZM1503.01 102.136V82.8161H1587.88V102.136H1503.01Z" fill="white"/>
<path d="M127.311 255.184C197.727 255.184 254.811 198.1 254.811 127.684C254.811 57.2673 197.727 0.183594 127.311 0.183594C56.8947 0.183594 -0.188965 57.2673 -0.188965 127.684C-0.188965 198.1 56.8947 255.184 127.311 255.184Z" fill="url(#paint0_radial_1465_585)"/>
<path d="M127.311 255.184C197.727 255.184 254.811 198.1 254.811 127.684C254.811 57.2673 197.727 0.183594 127.311 0.183594C56.8947 0.183594 -0.188965 57.2673 -0.188965 127.684C-0.188965 198.1 56.8947 255.184 127.311 255.184Z" fill="url(#paint1_radial_1465_585)"/>
<path d="M127.311 255.184C197.727 255.184 254.811 198.1 254.811 127.684C254.811 57.2673 197.727 0.183594 127.311 0.183594C56.8947 0.183594 -0.188965 57.2673 -0.188965 127.684C-0.188965 198.1 56.8947 255.184 127.311 255.184Z" fill="url(#paint2_radial_1465_585)"/>
<path d="M127.311 255.184C197.727 255.184 254.811 198.1 254.811 127.684C254.811 57.2673 197.727 0.183594 127.311 0.183594C56.8947 0.183594 -0.188965 57.2673 -0.188965 127.684C-0.188965 198.1 56.8947 255.184 127.311 255.184Z" fill="url(#paint3_radial_1465_585)"/>
<path d="M127.311 255.184C197.727 255.184 254.811 198.1 254.811 127.684C254.811 57.2673 197.727 0.183594 127.311 0.183594C56.8947 0.183594 -0.188965 57.2673 -0.188965 127.684C-0.188965 198.1 56.8947 255.184 127.311 255.184Z" fill="url(#paint4_radial_1465_585)"/>
<path d="M127.311 255.184C197.727 255.184 254.811 198.1 254.811 127.684C254.811 57.2673 197.727 0.183594 127.311 0.183594C56.8947 0.183594 -0.188965 57.2673 -0.188965 127.684C-0.188965 198.1 56.8947 255.184 127.311 255.184Z" fill="url(#paint5_radial_1465_585)"/>
</g>
<defs>
<radialGradient id="paint0_radial_1465_585" cx="0" cy="0" r="1" gradientUnits="userSpaceOnUse" gradientTransform="translate(139.156 111.095) rotate(131.86) scale(155.714)">
<stop offset="0.65625" stop-color="#D9D9D9" stop-opacity="0"/>
<stop offset="1" stop-color="#1F5FBE" stop-opacity="0.67"/>
</radialGradient>
<radialGradient id="paint1_radial_1465_585" cx="0" cy="0" r="1" gradientUnits="userSpaceOnUse" gradientTransform="translate(99.593 -25.0003) rotate(102.199) scale(295.404 257.493)">
<stop stop-color="#CFB3FE"/>
<stop offset="0.578125" stop-color="#1BA0EB" stop-opacity="0"/>
</radialGradient>
<radialGradient id="paint2_radial_1465_585" cx="0" cy="0" r="1" gradientUnits="userSpaceOnUse" gradientTransform="translate(195.671 41.5146) rotate(114.361) scale(257.504 240.157)">
<stop offset="0.140114" stop-color="#A0C3F7"/>
<stop offset="0.564596" stop-color="#A0C3F6" stop-opacity="0"/>
</radialGradient>
<radialGradient id="paint3_radial_1465_585" cx="0" cy="0" r="1" gradientUnits="userSpaceOnUse" gradientTransform="translate(232.001 -31.8956) rotate(123.89) scale(369.884 223.533)">
<stop stop-color="#4171BA" stop-opacity="0.48"/>
<stop offset="0.143916" stop-color="#4171BA" stop-opacity="0.28"/>
<stop offset="0.317157" stop-color="#4171BA" stop-opacity="0.0361948"/>
</radialGradient>
<radialGradient id="paint4_radial_1465_585" cx="0" cy="0" r="1" gradientUnits="userSpaceOnUse" gradientTransform="translate(155.677 273.274) rotate(-134.421) scale(360.126)">
<stop stop-color="#1F5FBE" stop-opacity="0.66"/>
<stop offset="0.215608" stop-color="#1F5FBE" stop-opacity="0.46066"/>
<stop offset="0.385863" stop-color="#1F5FBE" stop-opacity="0"/>
</radialGradient>
<radialGradient id="paint5_radial_1465_585" cx="0" cy="0" r="1" gradientUnits="userSpaceOnUse" gradientTransform="translate(142.372 144.003) rotate(-95.9783) scale(144.606)">
<stop offset="0.667542" stop-color="#C7F2F4" stop-opacity="0"/>
<stop offset="1" stop-color="#2BEFFC" stop-opacity="0.07"/>
</radialGradient>
<clipPath id="clip0_1465_585">
<rect width="1588" height="262" fill="white"/>
</clipPath>
</defs>
</svg>
